<svg width="140" height="120" viewBox="0 0 140 120" fill="none" xmlns="http://www.w3.org/2000/svg">
<path d="M91 8H101.395C112.877 8 122.184 17.3125 122.184 28.8V44.1098C122.184 47.4742 124.084 50.5506 127.092 52.0554C133.636 55.3283 133.636 64.6717 127.092 67.9446C124.084 69.4494 122.184 72.5258 122.184 75.8902V91.2C122.184 102.688 112.877 112 101.395 112H91" stroke="#00CC8B" stroke-width="14.67" stroke-linecap="round" stroke-linejoin="round"/>
<path d="M49 8H38.6053C27.1232 8 17.8158 17.3125 17.8158 28.8V44.1098C17.8158 47.4742 15.9156 50.5506 12.9084 52.0554C6.36387 55.3283 6.36387 64.6717 12.9084 67.9446C15.9156 69.4494 17.8158 72.5258 17.8158 75.8902V91.2C17.8158 102.688 27.1232 112 38.6053 112H49" stroke="#00B985" stroke-width="14.67" stroke-linecap="round" stroke-linejoin="round"/>
</svg>
