<svg width="1020" height="120" viewBox="0 0 1020 120" fill="none" xmlns="http://www.w3.org/2000/svg">
<path d="M168.38 73.932C155.972 72.744 143.432 71.82 130.892 70.764C119.936 69.84 113.336 60.996 115.58 50.304C116.24 47.4 116.768 44.496 117.428 41.592C117.692 40.8 117.824 40.008 118.088 39.084C121.652 28.92 132.608 21.132 143.564 21.132C165.08 21.132 186.728 21.132 208.376 21.132C209.564 21.132 210.224 21.792 209.96 22.848C208.904 27.732 207.848 32.484 206.792 37.368C206.66 38.292 205.604 39.084 204.68 39.084C186.728 39.084 168.776 39.084 150.824 39.084C145.808 39.084 143.828 46.872 148.712 47.4C161.12 48.588 173.66 49.512 186.068 50.568C197.156 51.492 203.756 60.336 201.512 71.028C200.852 73.932 200.324 76.836 199.664 79.74C199.532 80.532 199.136 81.324 198.872 82.248C195.44 92.412 184.484 100.332 173.66 100.332C151.88 100.332 130.232 100.332 108.584 100.332C107.66 100.332 107 99.54 107.132 98.484C108.188 93.732 109.244 88.848 110.3 83.964C110.432 83.04 111.488 82.248 112.412 82.248C130.364 82.248 148.316 82.248 166.136 82.248C171.416 82.248 173.396 74.46 168.38 73.932Z" fill="#202020"/>
<path d="M222.067 22.848C222.199 21.792 223.255 21.132 224.179 21.132C232.627 21.132 241.075 21.132 249.523 21.132C250.447 21.132 251.107 21.792 250.975 22.848C248.995 31.56 247.147 40.272 245.299 48.984C243.451 57.696 241.603 66.408 239.755 75.12C238.963 78.948 241.603 81.984 245.563 81.984C247.543 81.984 249.655 81.984 251.767 81.984C252.691 81.984 253.615 81.984 254.539 81.984C261.535 81.984 268.399 81.984 275.395 81.984C279.355 81.984 283.315 78.948 284.107 75.12C285.955 66.408 287.803 57.696 289.651 48.984C291.499 40.272 293.479 31.56 295.195 22.848C295.459 21.792 296.383 21.132 297.439 21.132C305.887 21.132 314.203 21.132 322.651 21.132C323.707 21.132 324.367 21.792 324.235 22.848C322.255 32.352 320.143 41.724 318.031 51.228C316.051 60.732 314.071 70.236 312.091 79.74C309.583 90.96 297.835 100.332 285.955 100.332C274.207 100.332 262.459 100.332 250.711 100.332C249.787 100.332 248.863 100.332 247.807 100.332C240.943 100.332 234.079 100.332 227.215 100.332C215.335 100.332 207.547 90.96 209.923 79.74C211.903 70.236 213.883 60.732 215.995 51.228C217.975 41.724 220.087 32.352 222.067 22.848Z" fill="#202020"/>
<path d="M325.319 82.908C325.451 82.38 325.847 81.852 326.375 81.588C336.275 74.592 346.175 67.464 356.075 60.468C365.975 53.472 375.875 46.344 385.775 39.348C369.275 39.348 352.907 39.348 336.539 39.348C335.483 39.348 334.823 38.556 335.087 37.632C336.143 32.616 337.199 27.732 338.255 22.848C338.387 21.792 339.443 21.132 340.499 21.132C370.859 21.132 401.219 21.132 431.579 21.132C432.635 21.132 433.295 21.792 433.031 22.848C431.975 27.996 430.787 33.276 429.731 38.424C429.599 38.952 429.203 39.48 428.807 39.744C418.907 46.872 409.007 53.868 399.107 60.864C389.207 67.86 379.307 74.988 369.407 81.984C385.775 81.984 402.143 81.984 418.511 81.984C419.567 81.984 420.227 82.776 419.963 83.7C418.907 88.716 417.851 93.6 416.795 98.484C416.663 99.54 415.739 100.2 414.683 100.2C384.323 100.2 353.963 100.2 323.603 100.2C322.547 100.2 321.887 99.54 322.019 98.484C323.075 93.336 324.263 88.056 325.319 82.908Z" fill="#202020"/>
<path d="M469.756 90.036C467.38 93.072 464.872 96.24 462.628 99.408C462.1 99.936 461.44 100.2 460.78 100.2C451.276 100.2 441.64 100.2 432.136 100.2C431.476 100.2 431.08 99.936 430.816 99.408C430.684 98.88 430.684 98.352 431.08 97.692C440.848 85.152 450.616 72.48 460.384 59.808C470.02 47.268 479.92 34.596 489.688 21.924C490.084 21.396 490.744 21.132 491.404 21.132C500.248 21.132 509.224 21.132 518.068 21.132C518.728 21.132 519.388 21.396 519.52 21.924C523.876 34.596 528.364 47.268 532.72 59.808C537.076 72.48 541.564 85.152 545.92 97.692C546.052 98.352 545.92 98.88 545.524 99.408C544.996 99.936 544.468 100.2 543.808 100.2C534.172 100.2 524.668 100.2 515.164 100.2C514.372 100.2 513.976 99.936 513.712 99.408C512.656 96.24 511.6 93.072 510.412 90.036C496.816 90.036 483.352 90.036 469.756 90.036ZM483.88 71.688C490.612 71.688 497.344 71.688 504.076 71.688C501.964 65.748 499.852 59.676 497.872 53.736C493.12 59.676 488.632 65.748 483.88 71.688Z" fill="#202020"/>
<path d="M557.942 79.74C559.922 70.236 561.902 60.732 563.882 51.228C565.862 41.724 567.974 32.352 569.954 22.848C570.218 21.792 571.142 21 572.066 21C580.514 21 588.962 21 597.41 21C598.334 21 598.994 21.792 598.862 22.848C597.014 31.56 595.034 40.272 593.318 48.984C591.47 57.696 589.622 66.408 587.774 75.12C586.85 78.948 589.49 81.984 593.45 81.984C607.706 81.984 621.962 81.984 636.218 81.984C637.142 81.984 637.802 82.776 637.67 83.7C636.614 88.716 635.558 93.6 634.502 98.484C634.238 99.54 633.314 100.2 632.258 100.2C613.25 100.2 594.11 100.2 575.102 100.2C569.162 100.2 564.278 97.956 561.11 94.26C558.074 90.432 556.754 85.416 557.942 79.74Z" fill="#202020"/>
<path d="M662.709 22.848C662.973 21.792 663.897 21.132 664.953 21.132C673.401 21.132 681.717 21.132 690.165 21.132C691.221 21.132 691.881 21.792 691.617 22.848C688.977 35.388 686.337 48.06 683.565 60.732C680.925 73.272 678.153 85.944 675.513 98.484C675.249 99.54 674.325 100.2 673.401 100.2C664.821 100.2 656.505 100.2 648.057 100.2C647.133 100.2 646.473 99.54 646.605 98.484C649.245 85.944 652.017 73.272 654.657 60.732C657.297 48.06 660.069 35.388 662.709 22.848Z" fill="#202020"/>
<path d="M764.642 67.596C766.226 60.072 767.81 52.68 769.394 45.156C770.978 37.764 772.562 30.24 774.146 22.848C774.278 21.792 775.334 21 776.258 21C784.706 21 793.154 21 801.602 21C802.526 21 803.186 21.792 803.054 22.848C800.282 35.388 797.642 48.06 794.87 60.732C792.23 73.272 789.458 85.944 786.818 98.484C786.554 99.54 785.63 100.2 784.706 100.2C775.994 100.2 767.15 100.2 758.438 100.2C757.91 100.2 757.514 100.068 757.25 99.672C752.366 92.016 747.35 84.36 742.466 76.704C737.582 69.048 732.698 61.392 727.814 53.736C726.23 61.26 724.646 68.652 723.062 76.176C721.478 83.568 719.894 91.092 718.31 98.484C718.046 99.54 717.122 100.2 716.066 100.2C707.618 100.2 699.302 100.2 690.854 100.2C689.798 100.2 689.27 99.54 689.402 98.484C692.174 85.944 694.814 73.272 697.454 60.732C700.226 48.06 702.866 35.388 705.506 22.848C705.77 21.792 706.694 21 707.75 21C716.462 21 725.174 21 733.886 21C734.546 21 734.942 21.264 735.206 21.66C740.09 29.316 744.974 36.972 749.858 44.628C754.742 52.284 759.758 59.94 764.642 67.596Z" fill="#202020"/>
<path d="M816.752 22.848C816.884 21.792 817.94 21.132 818.996 21.132C827.444 21.132 835.76 21.132 844.208 21.132C845.132 21.132 845.792 21.792 845.66 22.848C844.604 27.6 843.548 32.352 842.624 37.236C841.568 41.988 840.512 46.74 839.456 51.492C842.756 51.492 846.056 51.492 849.356 51.492C854.108 46.608 858.86 41.592 863.744 36.708C868.628 31.692 873.38 26.808 878.264 21.792C878.66 21.264 879.32 21.132 879.98 21.132C890.276 21.132 900.704 21.132 911 21.132C911.792 21.132 912.188 21.396 912.452 22.056C912.716 22.584 912.452 23.244 911.924 23.772C905.984 29.976 899.912 36.048 893.972 42.252C888.032 48.324 881.96 54.528 876.02 60.732C879.32 66.804 882.752 73.008 886.052 79.08C889.352 85.284 892.916 91.356 896.216 97.56C896.48 98.088 896.48 98.748 895.952 99.276C895.556 99.936 894.896 100.2 894.236 100.2C883.808 100.2 873.38 100.2 863.084 100.2C862.424 100.2 861.896 100.068 861.632 99.54C858.992 94.656 856.22 89.64 853.58 84.624C850.808 79.74 848.168 74.724 845.396 69.84C842.096 69.84 838.928 69.84 835.628 69.84C834.572 74.592 833.648 79.344 832.592 84.228C831.536 88.98 830.48 93.732 829.424 98.484C829.292 99.54 828.368 100.2 827.312 100.2C818.864 100.2 810.548 100.2 802.1 100.2C801.044 100.2 800.516 99.54 800.648 98.484C803.288 85.944 806.06 73.272 808.7 60.732C811.34 48.06 814.112 35.388 816.752 22.848Z" fill="#202020"/>
<path d="M971 8H981.395C992.877 8 1002.18 17.3125 1002.18 28.8V44.1098C1002.18 47.4742 1004.08 50.5506 1007.09 52.0554C1013.64 55.3283 1013.64 64.6717 1007.09 67.9446C1004.08 69.4494 1002.18 72.5258 1002.18 75.8902V91.2C1002.18 102.688 992.877 112 981.395 112H971" stroke="#00CC8B" stroke-width="14.67" stroke-linecap="round" stroke-linejoin="round"/>
<path d="M49 8H38.6053C27.1232 8 17.8158 17.3125 17.8158 28.8V44.1098C17.8158 47.4742 15.9156 50.5506 12.9084 52.0554C6.36387 55.3283 6.36387 64.6717 12.9084 67.9446C15.9156 69.4494 17.8158 72.5258 17.8158 75.8902V91.2C17.8158 102.688 27.1232 112 38.6053 112H49" stroke="#00B985" stroke-width="14.67" stroke-linecap="round" stroke-linejoin="round"/>
</svg>
